<mxfile host="app.diagrams.net" modified="2023-06-08T13:43:00.336Z" agent="Mozilla/5.0 (Windows NT 10.0; Win64; x64) AppleWebKit/537.36 (KHTML, like Gecko) Chrome/114.0.0.0 Safari/537.36" etag="0luJ5UDOi0HhUxzcu_Z_" version="21.3.7" type="github">
  <diagram id="y9B_kQ_wRSMAgdTWP-6r" name="第 1 页">
    <mxGraphModel dx="933" dy="587" grid="0" gridSize="10" guides="1" tooltips="1" connect="1" arrows="1" fold="1" page="1" pageScale="1" pageWidth="1654" pageHeight="2336" math="0" shadow="0">
      <root>
        <mxCell id="0" />
        <mxCell id="1" parent="0" />
        <mxCell id="jhXkXHDH-FQMzAmbD0my-100" style="rounded=0;orthogonalLoop=1;jettySize=auto;html=1;startArrow=none;startFill=0;" parent="1" source="jhXkXHDH-FQMzAmbD0my-102" target="jhXkXHDH-FQMzAmbD0my-104" edge="1">
          <mxGeometry relative="1" as="geometry" />
        </mxCell>
        <mxCell id="jhXkXHDH-FQMzAmbD0my-1" value="会话层" style="rounded=0;whiteSpace=wrap;html=1;fontFamily=Songti TC;fillColor=#dae8fc;strokeColor=#6c8ebf;" parent="1" vertex="1">
          <mxGeometry x="121" y="109" width="80" height="30" as="geometry" />
        </mxCell>
        <mxCell id="jhXkXHDH-FQMzAmbD0my-2" value="表示层" style="rounded=0;whiteSpace=wrap;html=1;fontFamily=Songti TC;fillColor=#dae8fc;strokeColor=#6c8ebf;" parent="1" vertex="1">
          <mxGeometry x="121" y="79" width="80" height="30" as="geometry" />
        </mxCell>
        <mxCell id="jhXkXHDH-FQMzAmbD0my-4" value="应用层" style="rounded=0;whiteSpace=wrap;html=1;fontFamily=Songti TC;fillColor=#dae8fc;strokeColor=#6c8ebf;" parent="1" vertex="1">
          <mxGeometry x="121" y="49" width="80" height="30" as="geometry" />
        </mxCell>
        <mxCell id="jhXkXHDH-FQMzAmbD0my-6" value="物理层" style="rounded=0;whiteSpace=wrap;html=1;fontFamily=Songti TC;fillColor=#d5e8d4;strokeColor=#82b366;" parent="1" vertex="1">
          <mxGeometry x="121" y="229" width="80" height="30" as="geometry" />
        </mxCell>
        <mxCell id="jhXkXHDH-FQMzAmbD0my-7" value="数据链路层" style="rounded=0;whiteSpace=wrap;html=1;fontFamily=Songti TC;fillColor=#d5e8d4;strokeColor=#82b366;" parent="1" vertex="1">
          <mxGeometry x="121" y="199" width="80" height="30" as="geometry" />
        </mxCell>
        <mxCell id="jhXkXHDH-FQMzAmbD0my-8" value="网络层" style="rounded=0;whiteSpace=wrap;html=1;fontFamily=Songti TC;fillColor=#f8cecc;strokeColor=#b85450;" parent="1" vertex="1">
          <mxGeometry x="121" y="169" width="80" height="30" as="geometry" />
        </mxCell>
        <mxCell id="jhXkXHDH-FQMzAmbD0my-9" value="传输层" style="rounded=0;whiteSpace=wrap;html=1;fontFamily=Songti TC;fillColor=#f8cecc;strokeColor=#b85450;" parent="1" vertex="1">
          <mxGeometry x="121" y="139" width="80" height="30" as="geometry" />
        </mxCell>
        <mxCell id="jhXkXHDH-FQMzAmbD0my-26" value="应用层" style="rounded=0;whiteSpace=wrap;html=1;fontFamily=Songti TC;fillColor=#dae8fc;strokeColor=#6c8ebf;" parent="1" vertex="1">
          <mxGeometry x="441" y="49" width="80" height="90" as="geometry" />
        </mxCell>
        <mxCell id="jhXkXHDH-FQMzAmbD0my-27" value="物理层" style="rounded=0;whiteSpace=wrap;html=1;fontFamily=Songti TC;fillColor=#d5e8d4;strokeColor=#82b366;" parent="1" vertex="1">
          <mxGeometry x="441" y="229" width="80" height="30" as="geometry" />
        </mxCell>
        <mxCell id="jhXkXHDH-FQMzAmbD0my-28" value="数据链路层" style="rounded=0;whiteSpace=wrap;html=1;fontFamily=Songti TC;fillColor=#d5e8d4;strokeColor=#82b366;" parent="1" vertex="1">
          <mxGeometry x="441" y="199" width="80" height="30" as="geometry" />
        </mxCell>
        <mxCell id="jhXkXHDH-FQMzAmbD0my-29" value="网络层" style="rounded=0;whiteSpace=wrap;html=1;fontFamily=Songti TC;fillColor=#f8cecc;strokeColor=#b85450;" parent="1" vertex="1">
          <mxGeometry x="441" y="169" width="80" height="30" as="geometry" />
        </mxCell>
        <mxCell id="jhXkXHDH-FQMzAmbD0my-30" value="传输层" style="rounded=0;whiteSpace=wrap;html=1;fontFamily=Songti TC;fillColor=#f8cecc;strokeColor=#b85450;" parent="1" vertex="1">
          <mxGeometry x="441" y="139" width="80" height="30" as="geometry" />
        </mxCell>
        <mxCell id="jhXkXHDH-FQMzAmbD0my-33" value="应用层" style="rounded=0;whiteSpace=wrap;html=1;fontFamily=Songti TC;fillColor=#dae8fc;strokeColor=#6c8ebf;" parent="1" vertex="1">
          <mxGeometry x="281" y="49" width="80" height="90" as="geometry" />
        </mxCell>
        <mxCell id="jhXkXHDH-FQMzAmbD0my-34" value="网络接口层&lt;br&gt;(网卡+硬件)" style="rounded=0;whiteSpace=wrap;html=1;fontFamily=Songti TC;fillColor=#d5e8d4;strokeColor=#82b366;" parent="1" vertex="1">
          <mxGeometry x="281" y="199" width="80" height="60" as="geometry" />
        </mxCell>
        <mxCell id="jhXkXHDH-FQMzAmbD0my-36" value="互联网层" style="rounded=0;whiteSpace=wrap;html=1;fontFamily=Songti TC;fillColor=#f8cecc;strokeColor=#b85450;" parent="1" vertex="1">
          <mxGeometry x="281" y="169" width="80" height="30" as="geometry" />
        </mxCell>
        <mxCell id="jhXkXHDH-FQMzAmbD0my-37" value="传输层" style="rounded=0;whiteSpace=wrap;html=1;fontFamily=Songti TC;fillColor=#f8cecc;strokeColor=#b85450;" parent="1" vertex="1">
          <mxGeometry x="281" y="139" width="80" height="30" as="geometry" />
        </mxCell>
        <mxCell id="jhXkXHDH-FQMzAmbD0my-38" value="&lt;font face=&quot;Comic Sans MS&quot;&gt;OSI&lt;/font&gt;&lt;font face=&quot;Songti TC&quot;&gt;参考模型&lt;/font&gt;" style="text;html=1;strokeColor=none;fillColor=none;align=center;verticalAlign=middle;whiteSpace=wrap;rounded=0;" parent="1" vertex="1">
          <mxGeometry x="121" y="19" width="80" height="30" as="geometry" />
        </mxCell>
        <mxCell id="jhXkXHDH-FQMzAmbD0my-39" value="&lt;font face=&quot;Songti TC&quot;&gt;五层协议&lt;/font&gt;" style="text;html=1;strokeColor=none;fillColor=none;align=center;verticalAlign=middle;whiteSpace=wrap;rounded=0;" parent="1" vertex="1">
          <mxGeometry x="451" y="19" width="60" height="30" as="geometry" />
        </mxCell>
        <mxCell id="jhXkXHDH-FQMzAmbD0my-40" value="&lt;font face=&quot;Comic Sans MS&quot;&gt;TCP/IP&lt;/font&gt;&lt;font face=&quot;Songti TC&quot;&gt;分层模型&lt;/font&gt;" style="text;html=1;strokeColor=none;fillColor=none;align=center;verticalAlign=middle;whiteSpace=wrap;rounded=0;" parent="1" vertex="1">
          <mxGeometry x="271" y="19" width="100" height="30" as="geometry" />
        </mxCell>
        <mxCell id="jhXkXHDH-FQMzAmbD0my-42" value="" style="shape=curlyBracket;whiteSpace=wrap;html=1;rounded=1;labelPosition=left;verticalLabelPosition=middle;align=right;verticalAlign=middle;" parent="1" vertex="1">
          <mxGeometry x="91" y="49" width="20" height="90" as="geometry" />
        </mxCell>
        <mxCell id="jhXkXHDH-FQMzAmbD0my-43" value="&lt;font face=&quot;Songti TC&quot;&gt;应用程序&lt;/font&gt;" style="text;html=1;strokeColor=none;fillColor=none;align=center;verticalAlign=middle;whiteSpace=wrap;rounded=0;" parent="1" vertex="1">
          <mxGeometry x="21" y="79" width="60" height="30" as="geometry" />
        </mxCell>
        <mxCell id="jhXkXHDH-FQMzAmbD0my-44" value="" style="shape=curlyBracket;whiteSpace=wrap;html=1;rounded=1;labelPosition=left;verticalLabelPosition=middle;align=right;verticalAlign=middle;" parent="1" vertex="1">
          <mxGeometry x="91" y="139" width="20" height="60" as="geometry" />
        </mxCell>
        <mxCell id="jhXkXHDH-FQMzAmbD0my-45" value="&lt;font face=&quot;Songti TC&quot;&gt;操作系统&lt;/font&gt;" style="text;html=1;strokeColor=none;fillColor=none;align=center;verticalAlign=middle;whiteSpace=wrap;rounded=0;" parent="1" vertex="1">
          <mxGeometry x="21" y="154" width="60" height="30" as="geometry" />
        </mxCell>
        <mxCell id="jhXkXHDH-FQMzAmbD0my-46" value="" style="shape=curlyBracket;whiteSpace=wrap;html=1;rounded=1;labelPosition=left;verticalLabelPosition=middle;align=right;verticalAlign=middle;" parent="1" vertex="1">
          <mxGeometry x="91" y="199" width="20" height="60" as="geometry" />
        </mxCell>
        <mxCell id="jhXkXHDH-FQMzAmbD0my-47" value="&lt;font face=&quot;Songti TC&quot;&gt;设备驱动与网络接口&lt;/font&gt;" style="text;html=1;strokeColor=none;fillColor=none;align=center;verticalAlign=middle;whiteSpace=wrap;rounded=0;" parent="1" vertex="1">
          <mxGeometry x="16" y="214" width="70" height="30" as="geometry" />
        </mxCell>
        <mxCell id="jhXkXHDH-FQMzAmbD0my-50" style="edgeStyle=orthogonalEdgeStyle;rounded=0;orthogonalLoop=1;jettySize=auto;html=1;exitX=0.1;exitY=0.5;exitDx=0;exitDy=0;exitPerimeter=0;entryX=1;entryY=0.5;entryDx=0;entryDy=0;fillColor=#d5e8d4;strokeColor=#000000;" parent="1" source="jhXkXHDH-FQMzAmbD0my-48" target="jhXkXHDH-FQMzAmbD0my-34" edge="1">
          <mxGeometry relative="1" as="geometry" />
        </mxCell>
        <mxCell id="jhXkXHDH-FQMzAmbD0my-48" value="" style="shape=curlyBracket;whiteSpace=wrap;html=1;rounded=1;labelPosition=left;verticalLabelPosition=middle;align=right;verticalAlign=middle;fillColor=#d5e8d4;strokeColor=#000000;" parent="1" vertex="1">
          <mxGeometry x="401" y="199" width="40" height="60" as="geometry" />
        </mxCell>
        <mxCell id="jhXkXHDH-FQMzAmbD0my-51" value="应用层" style="rounded=0;whiteSpace=wrap;html=1;fontFamily=Songti TC;strokeColor=none;" parent="1" vertex="1">
          <mxGeometry x="622" y="35.5" width="80" height="30" as="geometry" />
        </mxCell>
        <mxCell id="jhXkXHDH-FQMzAmbD0my-52" value="网络接口层&lt;br&gt;" style="rounded=0;whiteSpace=wrap;html=1;fontFamily=Songti TC;strokeColor=none;" parent="1" vertex="1">
          <mxGeometry x="622" y="228.5" width="80" height="30" as="geometry" />
        </mxCell>
        <mxCell id="jhXkXHDH-FQMzAmbD0my-53" value="互联网层" style="rounded=0;whiteSpace=wrap;html=1;fontFamily=Songti TC;strokeColor=none;" parent="1" vertex="1">
          <mxGeometry x="622" y="163.5" width="80" height="30" as="geometry" />
        </mxCell>
        <mxCell id="jhXkXHDH-FQMzAmbD0my-54" value="传输层" style="rounded=0;whiteSpace=wrap;html=1;fontFamily=Songti TC;strokeColor=none;" parent="1" vertex="1">
          <mxGeometry x="622" y="98.5" width="80" height="30" as="geometry" />
        </mxCell>
        <mxCell id="jhXkXHDH-FQMzAmbD0my-65" style="rounded=0;orthogonalLoop=1;jettySize=auto;html=1;startArrow=classic;startFill=1;" parent="1" source="jhXkXHDH-FQMzAmbD0my-57" target="jhXkXHDH-FQMzAmbD0my-58" edge="1">
          <mxGeometry relative="1" as="geometry" />
        </mxCell>
        <mxCell id="jhXkXHDH-FQMzAmbD0my-82" style="edgeStyle=orthogonalEdgeStyle;rounded=0;orthogonalLoop=1;jettySize=auto;html=1;exitX=1;exitY=0.5;exitDx=0;exitDy=0;fontFamily=Songti TC;fontSize=12;fontColor=default;startArrow=classic;startFill=1;dashed=1;dashPattern=8 8;" parent="1" source="jhXkXHDH-FQMzAmbD0my-57" target="jhXkXHDH-FQMzAmbD0my-76" edge="1">
          <mxGeometry relative="1" as="geometry" />
        </mxCell>
        <mxCell id="jhXkXHDH-FQMzAmbD0my-57" value="FTP&lt;br&gt;客户" style="rounded=0;whiteSpace=wrap;html=1;fontFamily=Songti TC;" parent="1" vertex="1">
          <mxGeometry x="702" y="35.5" width="80" height="30" as="geometry" />
        </mxCell>
        <mxCell id="jhXkXHDH-FQMzAmbD0my-66" style="edgeStyle=orthogonalEdgeStyle;rounded=0;orthogonalLoop=1;jettySize=auto;html=1;startArrow=classic;startFill=1;" parent="1" source="jhXkXHDH-FQMzAmbD0my-58" target="jhXkXHDH-FQMzAmbD0my-59" edge="1">
          <mxGeometry relative="1" as="geometry" />
        </mxCell>
        <mxCell id="jhXkXHDH-FQMzAmbD0my-58" value="TCP" style="rounded=0;whiteSpace=wrap;html=1;fontFamily=Songti TC;" parent="1" vertex="1">
          <mxGeometry x="702" y="98.5" width="80" height="30" as="geometry" />
        </mxCell>
        <mxCell id="jhXkXHDH-FQMzAmbD0my-67" style="edgeStyle=orthogonalEdgeStyle;rounded=0;orthogonalLoop=1;jettySize=auto;html=1;exitX=0.5;exitY=1;exitDx=0;exitDy=0;startArrow=classic;startFill=1;" parent="1" source="jhXkXHDH-FQMzAmbD0my-59" target="jhXkXHDH-FQMzAmbD0my-60" edge="1">
          <mxGeometry relative="1" as="geometry" />
        </mxCell>
        <mxCell id="jhXkXHDH-FQMzAmbD0my-59" value="IP" style="rounded=0;whiteSpace=wrap;html=1;fontFamily=Songti TC;" parent="1" vertex="1">
          <mxGeometry x="702" y="163.5" width="80" height="30" as="geometry" />
        </mxCell>
        <mxCell id="jhXkXHDH-FQMzAmbD0my-93" style="rounded=0;orthogonalLoop=1;jettySize=auto;html=1;exitX=0.5;exitY=1;exitDx=0;exitDy=0;fontFamily=Songti TC;fontSize=12;fontColor=default;startArrow=classic;startFill=1;" parent="1" source="jhXkXHDH-FQMzAmbD0my-60" edge="1">
          <mxGeometry relative="1" as="geometry">
            <mxPoint x="742.1428571428571" y="286.71427990141365" as="targetPoint" />
          </mxGeometry>
        </mxCell>
        <mxCell id="jhXkXHDH-FQMzAmbD0my-60" value="以太网驱动&lt;br&gt;程序" style="rounded=0;whiteSpace=wrap;html=1;fontFamily=Songti TC;" parent="1" vertex="1">
          <mxGeometry x="702" y="228.5" width="80" height="30" as="geometry" />
        </mxCell>
        <mxCell id="jhXkXHDH-FQMzAmbD0my-75" style="rounded=0;orthogonalLoop=1;jettySize=auto;html=1;startArrow=classic;startFill=1;" parent="1" source="jhXkXHDH-FQMzAmbD0my-76" target="jhXkXHDH-FQMzAmbD0my-78" edge="1">
          <mxGeometry relative="1" as="geometry" />
        </mxCell>
        <mxCell id="jhXkXHDH-FQMzAmbD0my-76" value="FTP&lt;br&gt;服务器" style="rounded=0;whiteSpace=wrap;html=1;fontFamily=Songti TC;" parent="1" vertex="1">
          <mxGeometry x="911" y="35.5" width="80" height="30" as="geometry" />
        </mxCell>
        <mxCell id="jhXkXHDH-FQMzAmbD0my-77" style="edgeStyle=orthogonalEdgeStyle;rounded=0;orthogonalLoop=1;jettySize=auto;html=1;startArrow=classic;startFill=1;" parent="1" source="jhXkXHDH-FQMzAmbD0my-78" target="jhXkXHDH-FQMzAmbD0my-80" edge="1">
          <mxGeometry relative="1" as="geometry" />
        </mxCell>
        <mxCell id="jhXkXHDH-FQMzAmbD0my-78" value="TCP" style="rounded=0;whiteSpace=wrap;html=1;fontFamily=Songti TC;" parent="1" vertex="1">
          <mxGeometry x="911" y="98.5" width="80" height="30" as="geometry" />
        </mxCell>
        <mxCell id="jhXkXHDH-FQMzAmbD0my-79" style="edgeStyle=orthogonalEdgeStyle;rounded=0;orthogonalLoop=1;jettySize=auto;html=1;exitX=0.5;exitY=1;exitDx=0;exitDy=0;startArrow=classic;startFill=1;" parent="1" source="jhXkXHDH-FQMzAmbD0my-80" target="jhXkXHDH-FQMzAmbD0my-81" edge="1">
          <mxGeometry relative="1" as="geometry" />
        </mxCell>
        <mxCell id="jhXkXHDH-FQMzAmbD0my-80" value="IP" style="rounded=0;whiteSpace=wrap;html=1;fontFamily=Songti TC;" parent="1" vertex="1">
          <mxGeometry x="911" y="163.5" width="80" height="30" as="geometry" />
        </mxCell>
        <mxCell id="jhXkXHDH-FQMzAmbD0my-81" value="以太网驱动&lt;br&gt;程序" style="rounded=0;whiteSpace=wrap;html=1;fontFamily=Songti TC;" parent="1" vertex="1">
          <mxGeometry x="911" y="228.5" width="80" height="30" as="geometry" />
        </mxCell>
        <mxCell id="jhXkXHDH-FQMzAmbD0my-83" style="edgeStyle=orthogonalEdgeStyle;rounded=0;orthogonalLoop=1;jettySize=auto;html=1;exitX=1;exitY=0.5;exitDx=0;exitDy=0;fontFamily=Songti TC;fontSize=12;fontColor=default;startArrow=classic;startFill=1;dashed=1;dashPattern=8 8;" parent="1" edge="1">
          <mxGeometry relative="1" as="geometry">
            <mxPoint x="782" y="113.25999999999999" as="sourcePoint" />
            <mxPoint x="911" y="113.25999999999999" as="targetPoint" />
          </mxGeometry>
        </mxCell>
        <mxCell id="jhXkXHDH-FQMzAmbD0my-84" style="edgeStyle=orthogonalEdgeStyle;rounded=0;orthogonalLoop=1;jettySize=auto;html=1;exitX=1;exitY=0.5;exitDx=0;exitDy=0;fontFamily=Songti TC;fontSize=12;fontColor=default;startArrow=classic;startFill=1;dashed=1;dashPattern=8 8;" parent="1" edge="1">
          <mxGeometry relative="1" as="geometry">
            <mxPoint x="782" y="178.26" as="sourcePoint" />
            <mxPoint x="911" y="178.26" as="targetPoint" />
          </mxGeometry>
        </mxCell>
        <mxCell id="jhXkXHDH-FQMzAmbD0my-85" style="edgeStyle=orthogonalEdgeStyle;rounded=0;orthogonalLoop=1;jettySize=auto;html=1;exitX=1;exitY=0.5;exitDx=0;exitDy=0;fontFamily=Songti TC;fontSize=12;fontColor=default;startArrow=classic;startFill=1;dashed=1;dashPattern=8 8;" parent="1" edge="1">
          <mxGeometry relative="1" as="geometry">
            <mxPoint x="782" y="243.26" as="sourcePoint" />
            <mxPoint x="911" y="243.26" as="targetPoint" />
          </mxGeometry>
        </mxCell>
        <mxCell id="jhXkXHDH-FQMzAmbD0my-86" value="FTP协议" style="rounded=0;whiteSpace=wrap;html=1;fontFamily=Songti TC;strokeColor=none;" parent="1" vertex="1">
          <mxGeometry x="805" y="19" width="80" height="30" as="geometry" />
        </mxCell>
        <mxCell id="jhXkXHDH-FQMzAmbD0my-87" value="TCP协议" style="rounded=0;whiteSpace=wrap;html=1;fontFamily=Songti TC;strokeColor=none;" parent="1" vertex="1">
          <mxGeometry x="805" y="81" width="80" height="30" as="geometry" />
        </mxCell>
        <mxCell id="jhXkXHDH-FQMzAmbD0my-88" value="IP协议" style="rounded=0;whiteSpace=wrap;html=1;fontFamily=Songti TC;strokeColor=none;" parent="1" vertex="1">
          <mxGeometry x="805" y="147" width="80" height="30" as="geometry" />
        </mxCell>
        <mxCell id="jhXkXHDH-FQMzAmbD0my-89" value="以太网协议" style="rounded=0;whiteSpace=wrap;html=1;fontFamily=Songti TC;strokeColor=none;" parent="1" vertex="1">
          <mxGeometry x="805" y="212" width="80" height="30" as="geometry" />
        </mxCell>
        <mxCell id="jhXkXHDH-FQMzAmbD0my-90" value="主机1" style="rounded=0;whiteSpace=wrap;html=1;fontFamily=Songti TC;strokeColor=none;" parent="1" vertex="1">
          <mxGeometry x="702" y="286" width="80" height="30" as="geometry" />
        </mxCell>
        <mxCell id="jhXkXHDH-FQMzAmbD0my-91" value="主机2" style="rounded=0;whiteSpace=wrap;html=1;fontFamily=Songti TC;strokeColor=none;" parent="1" vertex="1">
          <mxGeometry x="913" y="286" width="80" height="30" as="geometry" />
        </mxCell>
        <mxCell id="jhXkXHDH-FQMzAmbD0my-92" value="" style="endArrow=none;html=1;rounded=0;fontFamily=Songti TC;fontSize=12;fontColor=default;" parent="1" edge="1">
          <mxGeometry width="50" height="50" relative="1" as="geometry">
            <mxPoint x="701.5" y="287" as="sourcePoint" />
            <mxPoint x="1012" y="286" as="targetPoint" />
          </mxGeometry>
        </mxCell>
        <mxCell id="jhXkXHDH-FQMzAmbD0my-94" style="rounded=0;orthogonalLoop=1;jettySize=auto;html=1;exitX=0.5;exitY=1;exitDx=0;exitDy=0;fontFamily=Songti TC;fontSize=12;fontColor=default;startArrow=classic;startFill=1;" parent="1" edge="1">
          <mxGeometry relative="1" as="geometry">
            <mxPoint x="950.76" y="258.5" as="targetPoint" />
            <mxPoint x="950.9028571428571" y="286.21427990141365" as="sourcePoint" />
          </mxGeometry>
        </mxCell>
        <mxCell id="jhXkXHDH-FQMzAmbD0my-95" value="以太网" style="rounded=0;whiteSpace=wrap;html=1;fontFamily=Songti TC;strokeColor=none;" parent="1" vertex="1">
          <mxGeometry x="815" y="289" width="80" height="30" as="geometry" />
        </mxCell>
        <mxCell id="jhXkXHDH-FQMzAmbD0my-136" value="有效载荷" style="rounded=0;whiteSpace=wrap;html=1;fontFamily=Songti TC;container=0;" parent="1" vertex="1">
          <mxGeometry x="183.41999999999996" y="430" width="53" height="23" as="geometry" />
        </mxCell>
        <mxCell id="jhXkXHDH-FQMzAmbD0my-96" value="应用层" style="rounded=0;whiteSpace=wrap;html=1;fontFamily=Songti TC;strokeColor=none;container=0;" parent="1" vertex="1">
          <mxGeometry x="35.72" y="363.655" width="75.28205128205128" height="52.10000000000001" as="geometry" />
        </mxCell>
        <mxCell id="jhXkXHDH-FQMzAmbD0my-97" value="网络接口层&lt;br&gt;" style="rounded=0;whiteSpace=wrap;html=1;fontFamily=Songti TC;strokeColor=none;container=0;" parent="1" vertex="1">
          <mxGeometry x="35.72" y="698.8316666666665" width="75.28205128205128" height="52.10000000000001" as="geometry" />
        </mxCell>
        <mxCell id="jhXkXHDH-FQMzAmbD0my-98" value="互联网层" style="rounded=0;whiteSpace=wrap;html=1;fontFamily=Songti TC;strokeColor=none;container=0;" parent="1" vertex="1">
          <mxGeometry x="35.72" y="585.9483333333333" width="75.28205128205128" height="52.10000000000001" as="geometry" />
        </mxCell>
        <mxCell id="jhXkXHDH-FQMzAmbD0my-99" value="传输层" style="rounded=0;whiteSpace=wrap;html=1;fontFamily=Songti TC;strokeColor=none;container=0;" parent="1" vertex="1">
          <mxGeometry x="35.72" y="473.06500000000005" width="75.28205128205128" height="52.10000000000001" as="geometry" />
        </mxCell>
        <mxCell id="jhXkXHDH-FQMzAmbD0my-102" value="HTTP客户端" style="rounded=0;whiteSpace=wrap;html=1;fontFamily=Songti TC;container=0;" parent="1" vertex="1">
          <mxGeometry x="172.28205128205127" y="363.655" width="75.28205128205128" height="52.10000000000001" as="geometry" />
        </mxCell>
        <mxCell id="jhXkXHDH-FQMzAmbD0my-104" value="TCP" style="rounded=0;whiteSpace=wrap;html=1;fontFamily=Songti TC;container=0;" parent="1" vertex="1">
          <mxGeometry x="172.28205128205127" y="473.06500000000005" width="75.28205128205128" height="52.10000000000001" as="geometry" />
        </mxCell>
        <mxCell id="jhXkXHDH-FQMzAmbD0my-106" value="IP" style="rounded=0;whiteSpace=wrap;html=1;fontFamily=Songti TC;container=0;" parent="1" vertex="1">
          <mxGeometry x="172.28205128205127" y="585.9483333333333" width="75.28205128205128" height="52.10000000000001" as="geometry" />
        </mxCell>
        <mxCell id="jhXkXHDH-FQMzAmbD0my-103" style="edgeStyle=orthogonalEdgeStyle;rounded=0;orthogonalLoop=1;jettySize=auto;html=1;startArrow=none;startFill=0;" parent="1" source="jhXkXHDH-FQMzAmbD0my-104" target="jhXkXHDH-FQMzAmbD0my-106" edge="1">
          <mxGeometry relative="1" as="geometry" />
        </mxCell>
        <mxCell id="jhXkXHDH-FQMzAmbD0my-107" style="rounded=0;orthogonalLoop=1;jettySize=auto;html=1;exitX=0.5;exitY=1;exitDx=0;exitDy=0;fontFamily=Songti TC;fontSize=12;fontColor=default;startArrow=none;startFill=0;" parent="1" source="jhXkXHDH-FQMzAmbD0my-108" edge="1">
          <mxGeometry relative="1" as="geometry">
            <mxPoint x="210.05750915750912" y="799.9304660954551" as="targetPoint" />
          </mxGeometry>
        </mxCell>
        <mxCell id="jhXkXHDH-FQMzAmbD0my-108" value="以太网驱动&lt;br&gt;程序" style="rounded=0;whiteSpace=wrap;html=1;fontFamily=Songti TC;container=0;" parent="1" vertex="1">
          <mxGeometry x="172.28205128205127" y="698.8316666666665" width="75.28205128205128" height="52.10000000000001" as="geometry" />
        </mxCell>
        <mxCell id="jhXkXHDH-FQMzAmbD0my-105" style="edgeStyle=orthogonalEdgeStyle;rounded=0;orthogonalLoop=1;jettySize=auto;html=1;exitX=0.5;exitY=1;exitDx=0;exitDy=0;startArrow=none;startFill=0;" parent="1" source="jhXkXHDH-FQMzAmbD0my-106" target="jhXkXHDH-FQMzAmbD0my-108" edge="1">
          <mxGeometry relative="1" as="geometry" />
        </mxCell>
        <mxCell id="jhXkXHDH-FQMzAmbD0my-179" style="edgeStyle=orthogonalEdgeStyle;rounded=0;orthogonalLoop=1;jettySize=auto;html=1;exitX=0.5;exitY=0;exitDx=0;exitDy=0;entryX=0.5;entryY=1;entryDx=0;entryDy=0;fontFamily=Songti TC;fontSize=12;fontColor=default;" parent="1" source="jhXkXHDH-FQMzAmbD0my-110" target="jhXkXHDH-FQMzAmbD0my-178" edge="1">
          <mxGeometry relative="1" as="geometry" />
        </mxCell>
        <mxCell id="jhXkXHDH-FQMzAmbD0my-110" value="HTTP服务端" style="rounded=0;whiteSpace=wrap;html=1;fontFamily=Songti TC;container=0;" parent="1" vertex="1">
          <mxGeometry x="368.9564102564103" y="363.655" width="75.28205128205128" height="52.10000000000001" as="geometry" />
        </mxCell>
        <mxCell id="jhXkXHDH-FQMzAmbD0my-112" value="TCP" style="rounded=0;whiteSpace=wrap;html=1;fontFamily=Songti TC;container=0;" parent="1" vertex="1">
          <mxGeometry x="368.9564102564103" y="473.06500000000005" width="75.28205128205128" height="52.10000000000001" as="geometry" />
        </mxCell>
        <mxCell id="jhXkXHDH-FQMzAmbD0my-109" style="rounded=0;orthogonalLoop=1;jettySize=auto;html=1;startArrow=none;startFill=0;" parent="1" source="jhXkXHDH-FQMzAmbD0my-112" target="jhXkXHDH-FQMzAmbD0my-110" edge="1">
          <mxGeometry relative="1" as="geometry" />
        </mxCell>
        <mxCell id="jhXkXHDH-FQMzAmbD0my-114" value="IP" style="rounded=0;whiteSpace=wrap;html=1;fontFamily=Songti TC;container=0;" parent="1" vertex="1">
          <mxGeometry x="368.9564102564103" y="585.9483333333333" width="75.28205128205128" height="52.10000000000001" as="geometry" />
        </mxCell>
        <mxCell id="jhXkXHDH-FQMzAmbD0my-111" style="edgeStyle=orthogonalEdgeStyle;rounded=0;orthogonalLoop=1;jettySize=auto;html=1;startArrow=none;startFill=0;" parent="1" source="jhXkXHDH-FQMzAmbD0my-114" target="jhXkXHDH-FQMzAmbD0my-112" edge="1">
          <mxGeometry relative="1" as="geometry" />
        </mxCell>
        <mxCell id="jhXkXHDH-FQMzAmbD0my-115" value="以太网驱动&lt;br&gt;程序" style="rounded=0;whiteSpace=wrap;html=1;fontFamily=Songti TC;container=0;" parent="1" vertex="1">
          <mxGeometry x="368.9564102564103" y="698.8316666666665" width="75.28205128205128" height="52.10000000000001" as="geometry" />
        </mxCell>
        <mxCell id="jhXkXHDH-FQMzAmbD0my-113" style="edgeStyle=orthogonalEdgeStyle;rounded=0;orthogonalLoop=1;jettySize=auto;html=1;startArrow=none;startFill=0;entryX=0.5;entryY=1;entryDx=0;entryDy=0;" parent="1" source="jhXkXHDH-FQMzAmbD0my-115" target="jhXkXHDH-FQMzAmbD0my-114" edge="1">
          <mxGeometry relative="1" as="geometry" />
        </mxCell>
        <mxCell id="jhXkXHDH-FQMzAmbD0my-119" value="HTTP协议" style="rounded=0;whiteSpace=wrap;html=1;fontFamily=Songti TC;strokeColor=none;container=0;fontColor=#666666;" parent="1" vertex="1">
          <mxGeometry x="267.9976923076924" y="357" width="75.28205128205128" height="52.10000000000001" as="geometry" />
        </mxCell>
        <mxCell id="jhXkXHDH-FQMzAmbD0my-120" value="TCP协议" style="rounded=0;whiteSpace=wrap;html=1;fontFamily=Songti TC;strokeColor=none;container=0;fontColor=#666666;" parent="1" vertex="1">
          <mxGeometry x="267.9976923076924" y="464.67333333333335" width="75.28205128205128" height="52.10000000000001" as="geometry" />
        </mxCell>
        <mxCell id="jhXkXHDH-FQMzAmbD0my-121" value="IP协议" style="rounded=0;whiteSpace=wrap;html=1;fontFamily=Songti TC;strokeColor=none;container=0;fontColor=#666666;" parent="1" vertex="1">
          <mxGeometry x="267.9976923076924" y="579.2933333333333" width="75.28205128205128" height="52.10000000000001" as="geometry" />
        </mxCell>
        <mxCell id="jhXkXHDH-FQMzAmbD0my-122" value="以太网协议" style="rounded=0;whiteSpace=wrap;html=1;fontFamily=Songti TC;strokeColor=none;container=0;fontColor=#666666;" parent="1" vertex="1">
          <mxGeometry x="267.9976923076924" y="692.1766666666665" width="75.28205128205128" height="52.10000000000001" as="geometry" />
        </mxCell>
        <mxCell id="jhXkXHDH-FQMzAmbD0my-123" value="主机1" style="rounded=0;whiteSpace=wrap;html=1;fontFamily=Songti TC;strokeColor=none;container=0;" parent="1" vertex="1">
          <mxGeometry x="172.28205128205127" y="798.69" width="75.28205128205128" height="52.10000000000001" as="geometry" />
        </mxCell>
        <mxCell id="jhXkXHDH-FQMzAmbD0my-124" value="主机2" style="rounded=0;whiteSpace=wrap;html=1;fontFamily=Songti TC;strokeColor=none;container=0;" parent="1" vertex="1">
          <mxGeometry x="370.83846153846156" y="798.69" width="75.28205128205128" height="52.10000000000001" as="geometry" />
        </mxCell>
        <mxCell id="jhXkXHDH-FQMzAmbD0my-125" value="" style="endArrow=none;html=1;rounded=0;fontFamily=Songti TC;fontSize=12;fontColor=default;" parent="1" edge="1">
          <mxGeometry width="50" height="50" relative="1" as="geometry">
            <mxPoint x="171.81153846153848" y="800.4266666666667" as="sourcePoint" />
            <mxPoint x="464" y="798.69" as="targetPoint" />
          </mxGeometry>
        </mxCell>
        <mxCell id="jhXkXHDH-FQMzAmbD0my-126" style="rounded=0;orthogonalLoop=1;jettySize=auto;html=1;exitX=0.5;exitY=1;exitDx=0;exitDy=0;fontFamily=Songti TC;fontSize=12;fontColor=default;startArrow=none;startFill=0;" parent="1" edge="1">
          <mxGeometry relative="1" as="geometry">
            <mxPoint x="406.3715897435897" y="750.9316666666666" as="targetPoint" />
            <mxPoint x="406.5060219780219" y="799.0621327621218" as="sourcePoint" />
          </mxGeometry>
        </mxCell>
        <mxCell id="jhXkXHDH-FQMzAmbD0my-127" value="以太网" style="rounded=0;whiteSpace=wrap;html=1;fontFamily=Songti TC;strokeColor=none;container=0;" parent="1" vertex="1">
          <mxGeometry x="270.71794871794873" y="804" width="75.28205128205128" height="52.10000000000001" as="geometry" />
        </mxCell>
        <mxCell id="jhXkXHDH-FQMzAmbD0my-130" value="△" style="rounded=0;whiteSpace=wrap;html=1;fontFamily=Songti TC;strokeColor=none;container=0;fillColor=none;fontColor=#666666;" parent="1" vertex="1">
          <mxGeometry x="266.7576923076925" y="377.90144927536227" width="75.28205128205128" height="52.10000000000001" as="geometry" />
        </mxCell>
        <mxCell id="jhXkXHDH-FQMzAmbD0my-131" value="□" style="rounded=0;whiteSpace=wrap;html=1;fontFamily=Songti TC;strokeColor=none;container=0;fillColor=none;fontColor=#666666;" parent="1" vertex="1">
          <mxGeometry x="267.99769230769243" y="480.32850241545896" width="75.28205128205128" height="52.10000000000001" as="geometry" />
        </mxCell>
        <mxCell id="jhXkXHDH-FQMzAmbD0my-132" value="&lt;b style=&quot;font-family: arial, sans-serif; font-size: 14px; text-align: left; background-color: rgb(255, 255, 255);&quot;&gt;☆&lt;/b&gt;" style="rounded=0;whiteSpace=wrap;html=1;fontFamily=Songti TC;strokeColor=none;container=0;fillColor=none;fontColor=#666666;" parent="1" vertex="1">
          <mxGeometry x="268" y="597.364734299517" width="72.79" height="49.583091787439606" as="geometry" />
        </mxCell>
        <mxCell id="jhXkXHDH-FQMzAmbD0my-133" value="&lt;b style=&quot;font-family: arial, sans-serif; font-size: 14px; text-align: left; background-color: rgb(255, 255, 255);&quot;&gt;✡&lt;/b&gt;" style="text;html=1;align=center;verticalAlign=middle;resizable=0;points=[];autosize=1;strokeColor=none;fillColor=none;fontSize=12;fontFamily=Songti TC;fontColor=#666666;container=0;" parent="1" vertex="1">
          <mxGeometry x="290.40000000000003" y="718.1763285024155" width="28" height="29" as="geometry" />
        </mxCell>
        <mxCell id="jhXkXHDH-FQMzAmbD0my-181" style="edgeStyle=orthogonalEdgeStyle;rounded=0;orthogonalLoop=1;jettySize=auto;html=1;exitX=0.5;exitY=1;exitDx=0;exitDy=0;entryX=0.5;entryY=0;entryDx=0;entryDy=0;fontFamily=Songti TC;fontSize=12;fontColor=default;" parent="1" source="jhXkXHDH-FQMzAmbD0my-135" target="jhXkXHDH-FQMzAmbD0my-102" edge="1">
          <mxGeometry relative="1" as="geometry" />
        </mxCell>
        <mxCell id="jhXkXHDH-FQMzAmbD0my-135" value="数据" style="rounded=0;whiteSpace=wrap;html=1;fontFamily=Songti TC;container=0;" parent="1" vertex="1">
          <mxGeometry x="183.41999999999996" y="319" width="53" height="23" as="geometry" />
        </mxCell>
        <mxCell id="jhXkXHDH-FQMzAmbD0my-140" value="△" style="rounded=0;whiteSpace=wrap;html=1;fontFamily=Songti TC;container=0;" parent="1" vertex="1">
          <mxGeometry x="167.42000000000002" y="430" width="16" height="23" as="geometry" />
        </mxCell>
        <mxCell id="jhXkXHDH-FQMzAmbD0my-141" value="□" style="rounded=0;whiteSpace=wrap;html=1;fontFamily=Songti TC;container=0;" parent="1" vertex="1">
          <mxGeometry x="151.41999999999996" y="544" width="16" height="23" as="geometry" />
        </mxCell>
        <mxCell id="jhXkXHDH-FQMzAmbD0my-142" value="有效载荷" style="rounded=0;whiteSpace=wrap;html=1;fontFamily=Songti TC;container=0;" parent="1" vertex="1">
          <mxGeometry x="183.41999999999996" y="544" width="53" height="23" as="geometry" />
        </mxCell>
        <mxCell id="jhXkXHDH-FQMzAmbD0my-143" value="△" style="rounded=0;whiteSpace=wrap;html=1;fontFamily=Songti TC;container=0;" parent="1" vertex="1">
          <mxGeometry x="167.42000000000002" y="544" width="16" height="23" as="geometry" />
        </mxCell>
        <mxCell id="jhXkXHDH-FQMzAmbD0my-144" value="□" style="rounded=0;whiteSpace=wrap;html=1;fontFamily=Songti TC;container=0;" parent="1" vertex="1">
          <mxGeometry x="151.41999999999996" y="657" width="16" height="23" as="geometry" />
        </mxCell>
        <mxCell id="jhXkXHDH-FQMzAmbD0my-145" value="有效载荷" style="rounded=0;whiteSpace=wrap;html=1;fontFamily=Songti TC;container=0;" parent="1" vertex="1">
          <mxGeometry x="183.41999999999996" y="657" width="53" height="23" as="geometry" />
        </mxCell>
        <mxCell id="jhXkXHDH-FQMzAmbD0my-146" value="△" style="rounded=0;whiteSpace=wrap;html=1;fontFamily=Songti TC;container=0;" parent="1" vertex="1">
          <mxGeometry x="167.42000000000002" y="657" width="16" height="23" as="geometry" />
        </mxCell>
        <mxCell id="jhXkXHDH-FQMzAmbD0my-147" value="&lt;b style=&quot;border-color: var(--border-color); color: rgb(32, 33, 36); font-family: arial, sans-serif; font-size: 14px; text-align: left; background-color: rgb(255, 255, 255);&quot;&gt;☆&lt;/b&gt;" style="rounded=0;whiteSpace=wrap;html=1;fontFamily=Songti TC;container=0;" parent="1" vertex="1">
          <mxGeometry x="135.41999999999996" y="657" width="16" height="23" as="geometry" />
        </mxCell>
        <mxCell id="jhXkXHDH-FQMzAmbD0my-155" value="&lt;b style=&quot;border-color: var(--border-color); color: rgb(32, 33, 36); font-family: arial, sans-serif; font-size: 14px; text-align: left; background-color: rgb(255, 255, 255);&quot;&gt;✡&lt;/b&gt;" style="rounded=0;whiteSpace=wrap;html=1;fontFamily=Songti TC;container=0;" parent="1" vertex="1">
          <mxGeometry x="119.41999999999999" y="763" width="16" height="23" as="geometry" />
        </mxCell>
        <mxCell id="jhXkXHDH-FQMzAmbD0my-159" value="□" style="rounded=0;whiteSpace=wrap;html=1;fontFamily=Songti TC;container=0;" parent="1" vertex="1">
          <mxGeometry x="151.41999999999996" y="763" width="16" height="23" as="geometry" />
        </mxCell>
        <mxCell id="jhXkXHDH-FQMzAmbD0my-160" value="有效载荷" style="rounded=0;whiteSpace=wrap;html=1;fontFamily=Songti TC;container=0;" parent="1" vertex="1">
          <mxGeometry x="183.41999999999996" y="763" width="53" height="23" as="geometry" />
        </mxCell>
        <mxCell id="jhXkXHDH-FQMzAmbD0my-161" value="△" style="rounded=0;whiteSpace=wrap;html=1;fontFamily=Songti TC;container=0;" parent="1" vertex="1">
          <mxGeometry x="167.42000000000002" y="763" width="16" height="23" as="geometry" />
        </mxCell>
        <mxCell id="jhXkXHDH-FQMzAmbD0my-162" value="&lt;b style=&quot;border-color: var(--border-color); color: rgb(32, 33, 36); font-family: arial, sans-serif; font-size: 14px; text-align: left; background-color: rgb(255, 255, 255);&quot;&gt;☆&lt;/b&gt;" style="rounded=0;whiteSpace=wrap;html=1;fontFamily=Songti TC;container=0;" parent="1" vertex="1">
          <mxGeometry x="135.41999999999996" y="763" width="16" height="23" as="geometry" />
        </mxCell>
        <mxCell id="jhXkXHDH-FQMzAmbD0my-164" value="&lt;b style=&quot;border-color: var(--border-color); color: rgb(32, 33, 36); font-family: arial, sans-serif; font-size: 14px; text-align: left; background-color: rgb(255, 255, 255);&quot;&gt;✡&lt;/b&gt;" style="rounded=0;whiteSpace=wrap;html=1;fontFamily=Songti TC;container=0;" parent="1" vertex="1">
          <mxGeometry x="314" y="763" width="16" height="23" as="geometry" />
        </mxCell>
        <mxCell id="jhXkXHDH-FQMzAmbD0my-165" value="□" style="rounded=0;whiteSpace=wrap;html=1;fontFamily=Songti TC;container=0;" parent="1" vertex="1">
          <mxGeometry x="346" y="763" width="16" height="23" as="geometry" />
        </mxCell>
        <mxCell id="jhXkXHDH-FQMzAmbD0my-166" value="有效载荷" style="rounded=0;whiteSpace=wrap;html=1;fontFamily=Songti TC;container=0;" parent="1" vertex="1">
          <mxGeometry x="378" y="763" width="53" height="23" as="geometry" />
        </mxCell>
        <mxCell id="jhXkXHDH-FQMzAmbD0my-167" value="△" style="rounded=0;whiteSpace=wrap;html=1;fontFamily=Songti TC;container=0;" parent="1" vertex="1">
          <mxGeometry x="362" y="763" width="16" height="23" as="geometry" />
        </mxCell>
        <mxCell id="jhXkXHDH-FQMzAmbD0my-168" value="&lt;b style=&quot;border-color: var(--border-color); color: rgb(32, 33, 36); font-family: arial, sans-serif; font-size: 14px; text-align: left; background-color: rgb(255, 255, 255);&quot;&gt;☆&lt;/b&gt;" style="rounded=0;whiteSpace=wrap;html=1;fontFamily=Songti TC;container=0;" parent="1" vertex="1">
          <mxGeometry x="330" y="763" width="16" height="23" as="geometry" />
        </mxCell>
        <mxCell id="jhXkXHDH-FQMzAmbD0my-169" value="□" style="rounded=0;whiteSpace=wrap;html=1;fontFamily=Songti TC;container=0;" parent="1" vertex="1">
          <mxGeometry x="349" y="657" width="16" height="23" as="geometry" />
        </mxCell>
        <mxCell id="jhXkXHDH-FQMzAmbD0my-170" value="有效载荷" style="rounded=0;whiteSpace=wrap;html=1;fontFamily=Songti TC;container=0;" parent="1" vertex="1">
          <mxGeometry x="381" y="657" width="53" height="23" as="geometry" />
        </mxCell>
        <mxCell id="jhXkXHDH-FQMzAmbD0my-171" value="△" style="rounded=0;whiteSpace=wrap;html=1;fontFamily=Songti TC;container=0;" parent="1" vertex="1">
          <mxGeometry x="365" y="657" width="16" height="23" as="geometry" />
        </mxCell>
        <mxCell id="jhXkXHDH-FQMzAmbD0my-172" value="&lt;b style=&quot;border-color: var(--border-color); font-family: arial, sans-serif; font-size: 14px; text-align: left; background-color: rgb(255, 255, 255);&quot;&gt;☆&lt;/b&gt;" style="rounded=0;whiteSpace=wrap;html=1;fontFamily=Songti TC;container=0;fontColor=#666666;" parent="1" vertex="1">
          <mxGeometry x="333" y="657" width="16" height="23" as="geometry" />
        </mxCell>
        <mxCell id="jhXkXHDH-FQMzAmbD0my-173" value="□" style="rounded=0;whiteSpace=wrap;html=1;fontFamily=Songti TC;container=0;" parent="1" vertex="1">
          <mxGeometry x="349" y="544" width="16" height="23" as="geometry" />
        </mxCell>
        <mxCell id="jhXkXHDH-FQMzAmbD0my-174" value="有效载荷" style="rounded=0;whiteSpace=wrap;html=1;fontFamily=Songti TC;container=0;" parent="1" vertex="1">
          <mxGeometry x="381" y="544" width="53" height="23" as="geometry" />
        </mxCell>
        <mxCell id="jhXkXHDH-FQMzAmbD0my-175" value="△" style="rounded=0;whiteSpace=wrap;html=1;fontFamily=Songti TC;container=0;" parent="1" vertex="1">
          <mxGeometry x="365" y="544" width="16" height="23" as="geometry" />
        </mxCell>
        <mxCell id="jhXkXHDH-FQMzAmbD0my-176" value="有效载荷" style="rounded=0;whiteSpace=wrap;html=1;fontFamily=Songti TC;container=0;" parent="1" vertex="1">
          <mxGeometry x="381" y="433" width="53" height="23" as="geometry" />
        </mxCell>
        <mxCell id="jhXkXHDH-FQMzAmbD0my-177" value="△" style="rounded=0;whiteSpace=wrap;html=1;fontFamily=Songti TC;container=0;" parent="1" vertex="1">
          <mxGeometry x="365" y="433" width="16" height="23" as="geometry" />
        </mxCell>
        <mxCell id="jhXkXHDH-FQMzAmbD0my-178" value="数据" style="rounded=0;whiteSpace=wrap;html=1;fontFamily=Songti TC;container=0;" parent="1" vertex="1">
          <mxGeometry x="378" y="319" width="53" height="23" as="geometry" />
        </mxCell>
        <mxCell id="jhXkXHDH-FQMzAmbD0my-182" value="" style="endArrow=classic;html=1;rounded=0;fontFamily=Songti TC;fontSize=12;fontColor=default;" parent="1" edge="1">
          <mxGeometry width="50" height="50" relative="1" as="geometry">
            <mxPoint x="119.42" y="368" as="sourcePoint" />
            <mxPoint x="119.42" y="747.18" as="targetPoint" />
          </mxGeometry>
        </mxCell>
        <mxCell id="jhXkXHDH-FQMzAmbD0my-183" value="&lt;font style=&quot;font-size: 15px;&quot;&gt;添&lt;br&gt;加&lt;br&gt;报&lt;br&gt;头&lt;br&gt;信&lt;br&gt;息&lt;/font&gt;" style="text;html=1;align=center;verticalAlign=middle;resizable=0;points=[];autosize=1;strokeColor=none;fillColor=none;fontSize=12;fontFamily=Songti TC;fontColor=default;" parent="1" vertex="1">
          <mxGeometry x="111.42" y="468.15999999999997" width="33" height="120" as="geometry" />
        </mxCell>
        <mxCell id="jhXkXHDH-FQMzAmbD0my-184" value="" style="endArrow=classic;html=1;rounded=0;fontFamily=Songti TC;fontSize=12;fontColor=default;" parent="1" edge="1">
          <mxGeometry width="50" height="50" relative="1" as="geometry">
            <mxPoint x="503" y="751.28" as="sourcePoint" />
            <mxPoint x="503" y="372.1" as="targetPoint" />
          </mxGeometry>
        </mxCell>
        <mxCell id="jhXkXHDH-FQMzAmbD0my-185" value="&lt;font style=&quot;font-size: 15px;&quot;&gt;提&lt;br&gt;取&lt;br&gt;报&lt;br&gt;头&lt;br&gt;信&lt;br&gt;息&lt;/font&gt;" style="text;html=1;align=center;verticalAlign=middle;resizable=0;points=[];autosize=1;strokeColor=none;fillColor=none;fontSize=12;fontFamily=Songti TC;fontColor=default;" parent="1" vertex="1">
          <mxGeometry x="495" y="472.26" width="33" height="120" as="geometry" />
        </mxCell>
        <mxCell id="FbLNC3-QysiiRpVfgk6d-3" style="edgeStyle=orthogonalEdgeStyle;rounded=0;orthogonalLoop=1;jettySize=auto;html=1;exitX=0.5;exitY=0;exitDx=0;exitDy=0;entryX=0.5;entryY=1;entryDx=0;entryDy=0;" parent="1" source="FbLNC3-QysiiRpVfgk6d-1" target="FbLNC3-QysiiRpVfgk6d-2" edge="1">
          <mxGeometry relative="1" as="geometry" />
        </mxCell>
        <mxCell id="FbLNC3-QysiiRpVfgk6d-1" value="进入的帧" style="rounded=0;whiteSpace=wrap;html=1;fontFamily=Songti TC;container=0;" parent="1" vertex="1">
          <mxGeometry x="944.64" y="877" width="62" height="26" as="geometry" />
        </mxCell>
        <mxCell id="FbLNC3-QysiiRpVfgk6d-13" style="edgeStyle=orthogonalEdgeStyle;rounded=0;orthogonalLoop=1;jettySize=auto;html=1;exitX=0.5;exitY=0;exitDx=0;exitDy=0;entryX=0.5;entryY=1;entryDx=0;entryDy=0;" parent="1" source="FbLNC3-QysiiRpVfgk6d-2" target="FbLNC3-QysiiRpVfgk6d-4" edge="1">
          <mxGeometry relative="1" as="geometry" />
        </mxCell>
        <mxCell id="FbLNC3-QysiiRpVfgk6d-14" style="rounded=0;orthogonalLoop=1;jettySize=auto;html=1;exitX=0.5;exitY=0;exitDx=0;exitDy=0;entryX=0.5;entryY=1;entryDx=0;entryDy=0;" parent="1" source="FbLNC3-QysiiRpVfgk6d-2" target="FbLNC3-QysiiRpVfgk6d-11" edge="1">
          <mxGeometry relative="1" as="geometry" />
        </mxCell>
        <mxCell id="FbLNC3-QysiiRpVfgk6d-2" value="以太网驱动&lt;br&gt;程序" style="rounded=0;whiteSpace=wrap;html=1;fontFamily=Songti TC;container=0;" parent="1" vertex="1">
          <mxGeometry x="937.9964102564103" y="796.0016666666666" width="75.28205128205128" height="52.10000000000001" as="geometry" />
        </mxCell>
        <mxCell id="FbLNC3-QysiiRpVfgk6d-15" style="edgeStyle=orthogonalEdgeStyle;rounded=0;orthogonalLoop=1;jettySize=auto;html=1;exitX=0.5;exitY=0;exitDx=0;exitDy=0;entryX=0.5;entryY=1;entryDx=0;entryDy=0;" parent="1" source="FbLNC3-QysiiRpVfgk6d-4" target="FbLNC3-QysiiRpVfgk6d-5" edge="1">
          <mxGeometry relative="1" as="geometry" />
        </mxCell>
        <mxCell id="FbLNC3-QysiiRpVfgk6d-16" style="rounded=0;orthogonalLoop=1;jettySize=auto;html=1;exitX=0.5;exitY=0;exitDx=0;exitDy=0;entryX=0.5;entryY=1;entryDx=0;entryDy=0;" parent="1" source="FbLNC3-QysiiRpVfgk6d-4" target="FbLNC3-QysiiRpVfgk6d-6" edge="1">
          <mxGeometry relative="1" as="geometry" />
        </mxCell>
        <mxCell id="FbLNC3-QysiiRpVfgk6d-17" style="edgeStyle=none;shape=connector;rounded=0;orthogonalLoop=1;jettySize=auto;html=1;exitX=0.5;exitY=0;exitDx=0;exitDy=0;entryX=0.5;entryY=1;entryDx=0;entryDy=0;labelBackgroundColor=default;strokeColor=default;fontFamily=Helvetica;fontSize=11;fontColor=default;endArrow=classic;" parent="1" source="FbLNC3-QysiiRpVfgk6d-4" target="FbLNC3-QysiiRpVfgk6d-12" edge="1">
          <mxGeometry relative="1" as="geometry" />
        </mxCell>
        <mxCell id="FbLNC3-QysiiRpVfgk6d-4" value="&lt;font style=&quot;font-size: 15px;&quot;&gt;IP&lt;/font&gt;" style="rounded=0;whiteSpace=wrap;html=1;fontFamily=Songti TC;container=0;" parent="1" vertex="1">
          <mxGeometry x="937.9964102564103" y="686.0016666666664" width="75.28205128205128" height="52.10000000000001" as="geometry" />
        </mxCell>
        <mxCell id="FbLNC3-QysiiRpVfgk6d-18" style="edgeStyle=none;shape=connector;rounded=0;orthogonalLoop=1;jettySize=auto;html=1;exitX=0.5;exitY=0;exitDx=0;exitDy=0;labelBackgroundColor=default;strokeColor=default;fontFamily=Helvetica;fontSize=11;fontColor=default;endArrow=classic;" parent="1" source="FbLNC3-QysiiRpVfgk6d-5" target="FbLNC3-QysiiRpVfgk6d-7" edge="1">
          <mxGeometry relative="1" as="geometry" />
        </mxCell>
        <mxCell id="FbLNC3-QysiiRpVfgk6d-19" style="edgeStyle=none;shape=connector;rounded=0;orthogonalLoop=1;jettySize=auto;html=1;exitX=0.5;exitY=0;exitDx=0;exitDy=0;entryX=0.5;entryY=1;entryDx=0;entryDy=0;labelBackgroundColor=default;strokeColor=default;fontFamily=Helvetica;fontSize=11;fontColor=default;endArrow=classic;" parent="1" source="FbLNC3-QysiiRpVfgk6d-6" target="FbLNC3-QysiiRpVfgk6d-8" edge="1">
          <mxGeometry relative="1" as="geometry" />
        </mxCell>
        <mxCell id="FbLNC3-QysiiRpVfgk6d-5" value="&lt;font style=&quot;font-size: 15px;&quot;&gt;TCP&lt;/font&gt;" style="rounded=0;whiteSpace=wrap;html=1;fontFamily=Songti TC;container=0;" parent="1" vertex="1">
          <mxGeometry x="937.9964102564103" y="552.1116666666663" width="75.28205128205128" height="52.10000000000001" as="geometry" />
        </mxCell>
        <mxCell id="FbLNC3-QysiiRpVfgk6d-6" value="&lt;font style=&quot;font-size: 15px;&quot;&gt;UDP&lt;/font&gt;" style="rounded=0;whiteSpace=wrap;html=1;fontFamily=Songti TC;container=0;" parent="1" vertex="1">
          <mxGeometry x="1090.0564102564103" y="552.1116666666663" width="75.28205128205128" height="52.10000000000001" as="geometry" />
        </mxCell>
        <mxCell id="FbLNC3-QysiiRpVfgk6d-7" value="&lt;font style=&quot;font-size: 15px;&quot;&gt;应用程序&lt;/font&gt;" style="rounded=0;whiteSpace=wrap;html=1;fontFamily=Songti TC;container=0;" parent="1" vertex="1">
          <mxGeometry x="937.9964102564103" y="453.00166666666644" width="75.28205128205128" height="52.10000000000001" as="geometry" />
        </mxCell>
        <mxCell id="FbLNC3-QysiiRpVfgk6d-8" value="&lt;font style=&quot;font-size: 15px;&quot;&gt;应用程序&lt;/font&gt;" style="rounded=0;whiteSpace=wrap;html=1;fontFamily=Songti TC;container=0;" parent="1" vertex="1">
          <mxGeometry x="1090.0564102564103" y="452.11166666666645" width="75.28205128205128" height="52.10000000000001" as="geometry" />
        </mxCell>
        <mxCell id="FbLNC3-QysiiRpVfgk6d-11" value="其他互联网层协议" style="rounded=0;whiteSpace=wrap;html=1;fontFamily=Songti TC;container=0;" parent="1" vertex="1">
          <mxGeometry x="784.4364102564103" y="686.0016666666667" width="75.28205128205128" height="52.10000000000001" as="geometry" />
        </mxCell>
        <mxCell id="FbLNC3-QysiiRpVfgk6d-12" value="其他传输层&lt;br&gt;协议" style="rounded=0;whiteSpace=wrap;html=1;fontFamily=Songti TC;container=0;" parent="1" vertex="1">
          <mxGeometry x="785.9364102564103" y="552.1116666666666" width="75.28205128205128" height="52.10000000000001" as="geometry" />
        </mxCell>
        <mxCell id="FbLNC3-QysiiRpVfgk6d-22" value="" style="endArrow=classic;html=1;rounded=0;fontFamily=Songti TC;fontSize=12;fontColor=default;" parent="1" edge="1">
          <mxGeometry width="50" height="50" relative="1" as="geometry">
            <mxPoint x="1246" y="832.18" as="sourcePoint" />
            <mxPoint x="1246" y="453" as="targetPoint" />
          </mxGeometry>
        </mxCell>
        <mxCell id="FbLNC3-QysiiRpVfgk6d-23" value="&lt;font style=&quot;font-size: 15px;&quot;&gt;提&lt;br&gt;取&lt;br&gt;报&lt;br&gt;头&lt;br&gt;信&lt;br&gt;息&lt;/font&gt;" style="text;html=1;align=center;verticalAlign=middle;resizable=0;points=[];autosize=1;strokeColor=none;fillColor=none;fontSize=12;fontFamily=Songti TC;fontColor=default;" parent="1" vertex="1">
          <mxGeometry x="1238" y="553.16" width="33" height="120" as="geometry" />
        </mxCell>
        <mxCell id="FbLNC3-QysiiRpVfgk6d-24" value="应用层" style="rounded=0;whiteSpace=wrap;html=1;fontFamily=Songti TC;strokeColor=none;container=0;" parent="1" vertex="1">
          <mxGeometry x="1165.34" y="452.11499999999995" width="75.28205128205128" height="52.10000000000001" as="geometry" />
        </mxCell>
        <mxCell id="FbLNC3-QysiiRpVfgk6d-25" value="网络接口层&lt;br&gt;" style="rounded=0;whiteSpace=wrap;html=1;fontFamily=Songti TC;strokeColor=none;container=0;" parent="1" vertex="1">
          <mxGeometry x="1165.34" y="798.6916666666665" width="75.28205128205128" height="52.10000000000001" as="geometry" />
        </mxCell>
        <mxCell id="FbLNC3-QysiiRpVfgk6d-26" value="互联网层" style="rounded=0;whiteSpace=wrap;html=1;fontFamily=Songti TC;strokeColor=none;container=0;" parent="1" vertex="1">
          <mxGeometry x="1162.72" y="687.9983333333333" width="75.28205128205128" height="52.10000000000001" as="geometry" />
        </mxCell>
        <mxCell id="FbLNC3-QysiiRpVfgk6d-27" value="传输层" style="rounded=0;whiteSpace=wrap;html=1;fontFamily=Songti TC;strokeColor=none;container=0;" parent="1" vertex="1">
          <mxGeometry x="1165.34" y="552.1150000000001" width="75.28205128205128" height="52.10000000000001" as="geometry" />
        </mxCell>
        <mxCell id="jazvACACAgdtb0qdtr9G-15" value="FTP&lt;br&gt;服务器" style="rounded=0;whiteSpace=wrap;html=1;fontFamily=Songti TC;" parent="1" vertex="1">
          <mxGeometry x="425" y="948.29" width="80" height="30" as="geometry" />
        </mxCell>
        <mxCell id="jazvACACAgdtb0qdtr9G-17" value="TCP" style="rounded=0;whiteSpace=wrap;html=1;fontFamily=Songti TC;" parent="1" vertex="1">
          <mxGeometry x="425" y="1011.29" width="80" height="30" as="geometry" />
        </mxCell>
        <mxCell id="jazvACACAgdtb0qdtr9G-14" style="rounded=0;orthogonalLoop=1;jettySize=auto;html=1;startArrow=classic;startFill=1;" parent="1" source="jazvACACAgdtb0qdtr9G-15" target="jazvACACAgdtb0qdtr9G-17" edge="1">
          <mxGeometry relative="1" as="geometry" />
        </mxCell>
        <mxCell id="jazvACACAgdtb0qdtr9G-19" value="IP" style="rounded=0;whiteSpace=wrap;html=1;fontFamily=Songti TC;" parent="1" vertex="1">
          <mxGeometry x="425" y="1076.29" width="80" height="30" as="geometry" />
        </mxCell>
        <mxCell id="jazvACACAgdtb0qdtr9G-16" style="edgeStyle=orthogonalEdgeStyle;rounded=0;orthogonalLoop=1;jettySize=auto;html=1;startArrow=classic;startFill=1;" parent="1" source="jazvACACAgdtb0qdtr9G-17" target="jazvACACAgdtb0qdtr9G-19" edge="1">
          <mxGeometry relative="1" as="geometry" />
        </mxCell>
        <mxCell id="jazvACACAgdtb0qdtr9G-18" style="edgeStyle=orthogonalEdgeStyle;rounded=0;orthogonalLoop=1;jettySize=auto;html=1;exitX=0.5;exitY=1;exitDx=0;exitDy=0;startArrow=classic;startFill=1;" parent="1" source="jazvACACAgdtb0qdtr9G-19" edge="1">
          <mxGeometry relative="1" as="geometry">
            <mxPoint x="465" y="1141.29" as="targetPoint" />
          </mxGeometry>
        </mxCell>
        <mxCell id="jazvACACAgdtb0qdtr9G-31" style="rounded=0;orthogonalLoop=1;jettySize=auto;html=1;exitX=0.5;exitY=1;exitDx=0;exitDy=0;fontFamily=Songti TC;fontSize=12;fontColor=default;startArrow=classic;startFill=1;" parent="1" edge="1">
          <mxGeometry relative="1" as="geometry">
            <mxPoint x="464.76" y="1171.29" as="targetPoint" />
            <mxPoint x="464.9028571428571" y="1199.0042799014136" as="sourcePoint" />
          </mxGeometry>
        </mxCell>
        <mxCell id="jazvACACAgdtb0qdtr9G-6" style="edgeStyle=orthogonalEdgeStyle;rounded=0;orthogonalLoop=1;jettySize=auto;html=1;exitX=1;exitY=0.5;exitDx=0;exitDy=0;fontFamily=Songti TC;fontSize=12;fontColor=default;startArrow=classic;startFill=1;dashed=1;dashPattern=8 8;" parent="1" source="jazvACACAgdtb0qdtr9G-7" target="jazvACACAgdtb0qdtr9G-15" edge="1">
          <mxGeometry relative="1" as="geometry" />
        </mxCell>
        <mxCell id="jazvACACAgdtb0qdtr9G-41" value="令牌环驱动程序" style="rounded=0;whiteSpace=wrap;html=1;fontFamily=Songti TC;" parent="1" vertex="1">
          <mxGeometry x="434" y="1141" width="65" height="30" as="geometry" />
        </mxCell>
        <mxCell id="jazvACACAgdtb0qdtr9G-1" value="应用层" style="rounded=0;whiteSpace=wrap;html=1;fontFamily=Songti TC;strokeColor=none;" parent="1" vertex="1">
          <mxGeometry x="75" y="948.5" width="80" height="30" as="geometry" />
        </mxCell>
        <mxCell id="jazvACACAgdtb0qdtr9G-2" value="网络接口层&lt;br&gt;" style="rounded=0;whiteSpace=wrap;html=1;fontFamily=Songti TC;strokeColor=none;" parent="1" vertex="1">
          <mxGeometry x="75" y="1141.5" width="80" height="30" as="geometry" />
        </mxCell>
        <mxCell id="jazvACACAgdtb0qdtr9G-3" value="互联网层" style="rounded=0;whiteSpace=wrap;html=1;fontFamily=Songti TC;strokeColor=none;" parent="1" vertex="1">
          <mxGeometry x="75" y="1076.5" width="80" height="30" as="geometry" />
        </mxCell>
        <mxCell id="jazvACACAgdtb0qdtr9G-4" value="传输层" style="rounded=0;whiteSpace=wrap;html=1;fontFamily=Songti TC;strokeColor=none;" parent="1" vertex="1">
          <mxGeometry x="75" y="1011.5" width="80" height="30" as="geometry" />
        </mxCell>
        <mxCell id="jazvACACAgdtb0qdtr9G-7" value="FTP&lt;br&gt;客户" style="rounded=0;whiteSpace=wrap;html=1;fontFamily=Songti TC;" parent="1" vertex="1">
          <mxGeometry x="155" y="948.5" width="80" height="30" as="geometry" />
        </mxCell>
        <mxCell id="jazvACACAgdtb0qdtr9G-9" value="TCP" style="rounded=0;whiteSpace=wrap;html=1;fontFamily=Songti TC;" parent="1" vertex="1">
          <mxGeometry x="155" y="1011.5" width="80" height="30" as="geometry" />
        </mxCell>
        <mxCell id="jazvACACAgdtb0qdtr9G-5" style="rounded=0;orthogonalLoop=1;jettySize=auto;html=1;startArrow=classic;startFill=1;" parent="1" source="jazvACACAgdtb0qdtr9G-7" target="jazvACACAgdtb0qdtr9G-9" edge="1">
          <mxGeometry relative="1" as="geometry" />
        </mxCell>
        <mxCell id="jazvACACAgdtb0qdtr9G-11" value="IP" style="rounded=0;whiteSpace=wrap;html=1;fontFamily=Songti TC;" parent="1" vertex="1">
          <mxGeometry x="155" y="1076.5" width="80" height="30" as="geometry" />
        </mxCell>
        <mxCell id="jazvACACAgdtb0qdtr9G-8" style="edgeStyle=orthogonalEdgeStyle;rounded=0;orthogonalLoop=1;jettySize=auto;html=1;startArrow=classic;startFill=1;" parent="1" source="jazvACACAgdtb0qdtr9G-9" target="jazvACACAgdtb0qdtr9G-11" edge="1">
          <mxGeometry relative="1" as="geometry" />
        </mxCell>
        <mxCell id="jazvACACAgdtb0qdtr9G-12" style="rounded=0;orthogonalLoop=1;jettySize=auto;html=1;exitX=0.5;exitY=1;exitDx=0;exitDy=0;fontFamily=Songti TC;fontSize=12;fontColor=default;startArrow=classic;startFill=1;" parent="1" source="jazvACACAgdtb0qdtr9G-13" edge="1">
          <mxGeometry relative="1" as="geometry">
            <mxPoint x="195.1428571428571" y="1199.7142799014136" as="targetPoint" />
          </mxGeometry>
        </mxCell>
        <mxCell id="jazvACACAgdtb0qdtr9G-55" style="edgeStyle=orthogonalEdgeStyle;rounded=0;orthogonalLoop=1;jettySize=auto;html=1;exitX=1;exitY=0.5;exitDx=0;exitDy=0;entryX=0;entryY=0.5;entryDx=0;entryDy=0;startArrow=classic;startFill=1;" parent="1" source="jazvACACAgdtb0qdtr9G-13" target="jazvACACAgdtb0qdtr9G-42" edge="1">
          <mxGeometry relative="1" as="geometry" />
        </mxCell>
        <mxCell id="jazvACACAgdtb0qdtr9G-13" value="以太网驱动&lt;br&gt;程序" style="rounded=0;whiteSpace=wrap;html=1;fontFamily=Songti TC;" parent="1" vertex="1">
          <mxGeometry x="162.5" y="1141.5" width="65" height="30" as="geometry" />
        </mxCell>
        <mxCell id="jazvACACAgdtb0qdtr9G-10" style="edgeStyle=orthogonalEdgeStyle;rounded=0;orthogonalLoop=1;jettySize=auto;html=1;exitX=0.5;exitY=1;exitDx=0;exitDy=0;startArrow=classic;startFill=1;" parent="1" source="jazvACACAgdtb0qdtr9G-11" target="jazvACACAgdtb0qdtr9G-13" edge="1">
          <mxGeometry relative="1" as="geometry" />
        </mxCell>
        <mxCell id="jazvACACAgdtb0qdtr9G-21" style="edgeStyle=orthogonalEdgeStyle;rounded=0;orthogonalLoop=1;jettySize=auto;html=1;exitX=1;exitY=0.5;exitDx=0;exitDy=0;fontFamily=Songti TC;fontSize=12;fontColor=default;startArrow=classic;startFill=1;dashed=1;dashPattern=8 8;entryX=0;entryY=0.5;entryDx=0;entryDy=0;" parent="1" target="jazvACACAgdtb0qdtr9G-17" edge="1">
          <mxGeometry relative="1" as="geometry">
            <mxPoint x="235" y="1026.26" as="sourcePoint" />
            <mxPoint x="364" y="1026.26" as="targetPoint" />
          </mxGeometry>
        </mxCell>
        <mxCell id="jazvACACAgdtb0qdtr9G-22" style="edgeStyle=orthogonalEdgeStyle;rounded=0;orthogonalLoop=1;jettySize=auto;html=1;exitX=1;exitY=0.5;exitDx=0;exitDy=0;fontFamily=Songti TC;fontSize=12;fontColor=default;startArrow=classic;startFill=1;dashed=1;dashPattern=8 8;entryX=0;entryY=0.5;entryDx=0;entryDy=0;" parent="1" target="jazvACACAgdtb0qdtr9G-19" edge="1">
          <mxGeometry relative="1" as="geometry">
            <mxPoint x="235" y="1091.26" as="sourcePoint" />
            <mxPoint x="364" y="1091.26" as="targetPoint" />
          </mxGeometry>
        </mxCell>
        <mxCell id="jazvACACAgdtb0qdtr9G-24" value="FTP协议" style="rounded=0;whiteSpace=wrap;html=1;fontFamily=Songti TC;strokeColor=none;" parent="1" vertex="1">
          <mxGeometry x="295" y="932" width="80" height="30" as="geometry" />
        </mxCell>
        <mxCell id="jazvACACAgdtb0qdtr9G-25" value="TCP协议" style="rounded=0;whiteSpace=wrap;html=1;fontFamily=Songti TC;strokeColor=none;" parent="1" vertex="1">
          <mxGeometry x="295" y="994" width="80" height="30" as="geometry" />
        </mxCell>
        <mxCell id="jazvACACAgdtb0qdtr9G-26" value="IP协议" style="rounded=0;whiteSpace=wrap;html=1;fontFamily=Songti TC;strokeColor=none;" parent="1" vertex="1">
          <mxGeometry x="240" y="1055" width="41" height="30" as="geometry" />
        </mxCell>
        <mxCell id="jazvACACAgdtb0qdtr9G-28" value="主机1" style="rounded=0;whiteSpace=wrap;html=1;fontFamily=Songti TC;strokeColor=none;" parent="1" vertex="1">
          <mxGeometry x="155" y="1199" width="80" height="30" as="geometry" />
        </mxCell>
        <mxCell id="jazvACACAgdtb0qdtr9G-29" value="主机2" style="rounded=0;whiteSpace=wrap;html=1;fontFamily=Songti TC;strokeColor=none;" parent="1" vertex="1">
          <mxGeometry x="473" y="1185" width="80" height="30" as="geometry" />
        </mxCell>
        <mxCell id="jazvACACAgdtb0qdtr9G-30" value="" style="endArrow=none;html=1;rounded=0;fontFamily=Songti TC;fontSize=12;fontColor=default;" parent="1" edge="1">
          <mxGeometry width="50" height="50" relative="1" as="geometry">
            <mxPoint x="194" y="1199" as="sourcePoint" />
            <mxPoint x="328" y="1199" as="targetPoint" />
          </mxGeometry>
        </mxCell>
        <mxCell id="jazvACACAgdtb0qdtr9G-32" value="以太网" style="rounded=0;whiteSpace=wrap;html=1;fontFamily=Songti TC;strokeColor=none;" parent="1" vertex="1">
          <mxGeometry x="208" y="1202" width="80" height="30" as="geometry" />
        </mxCell>
        <mxCell id="jazvACACAgdtb0qdtr9G-53" style="rounded=0;orthogonalLoop=1;jettySize=auto;html=1;exitX=0.75;exitY=1;exitDx=0;exitDy=0;entryX=0.5;entryY=0;entryDx=0;entryDy=0;startArrow=classic;startFill=1;" parent="1" source="jazvACACAgdtb0qdtr9G-38" target="jazvACACAgdtb0qdtr9G-43" edge="1">
          <mxGeometry relative="1" as="geometry" />
        </mxCell>
        <mxCell id="jazvACACAgdtb0qdtr9G-38" value="IP" style="rounded=0;whiteSpace=wrap;html=1;fontFamily=Songti TC;" parent="1" vertex="1">
          <mxGeometry x="288" y="1073" width="80" height="30" as="geometry" />
        </mxCell>
        <mxCell id="jazvACACAgdtb0qdtr9G-47" style="edgeStyle=orthogonalEdgeStyle;rounded=0;orthogonalLoop=1;jettySize=auto;html=1;exitX=0.5;exitY=1;exitDx=0;exitDy=0;entryX=0.5;entryY=1;entryDx=0;entryDy=0;startArrow=classic;startFill=1;" parent="1" target="jazvACACAgdtb0qdtr9G-42" edge="1">
          <mxGeometry relative="1" as="geometry">
            <mxPoint x="293.33333333333326" y="1199.3333507719494" as="sourcePoint" />
          </mxGeometry>
        </mxCell>
        <mxCell id="jazvACACAgdtb0qdtr9G-52" style="rounded=0;orthogonalLoop=1;jettySize=auto;html=1;exitX=0.5;exitY=0;exitDx=0;exitDy=0;entryX=0.25;entryY=1;entryDx=0;entryDy=0;startArrow=classic;startFill=1;" parent="1" source="jazvACACAgdtb0qdtr9G-42" target="jazvACACAgdtb0qdtr9G-38" edge="1">
          <mxGeometry relative="1" as="geometry" />
        </mxCell>
        <mxCell id="jazvACACAgdtb0qdtr9G-42" value="以太网驱动&lt;br&gt;程序" style="rounded=0;whiteSpace=wrap;html=1;fontFamily=Songti TC;" parent="1" vertex="1">
          <mxGeometry x="261" y="1141.5" width="65" height="30" as="geometry" />
        </mxCell>
        <mxCell id="jazvACACAgdtb0qdtr9G-51" style="edgeStyle=orthogonalEdgeStyle;rounded=0;orthogonalLoop=1;jettySize=auto;html=1;exitX=0.5;exitY=1;exitDx=0;exitDy=0;entryX=0.165;entryY=-0.005;entryDx=0;entryDy=0;entryPerimeter=0;startArrow=classic;startFill=1;" parent="1" source="jazvACACAgdtb0qdtr9G-43" target="jazvACACAgdtb0qdtr9G-48" edge="1">
          <mxGeometry relative="1" as="geometry" />
        </mxCell>
        <mxCell id="jazvACACAgdtb0qdtr9G-57" style="edgeStyle=orthogonalEdgeStyle;rounded=0;orthogonalLoop=1;jettySize=auto;html=1;exitX=1;exitY=0.5;exitDx=0;exitDy=0;entryX=0;entryY=0.5;entryDx=0;entryDy=0;startArrow=classic;startFill=1;" parent="1" source="jazvACACAgdtb0qdtr9G-43" target="jazvACACAgdtb0qdtr9G-41" edge="1">
          <mxGeometry relative="1" as="geometry" />
        </mxCell>
        <mxCell id="jazvACACAgdtb0qdtr9G-43" value="令牌环驱动程序" style="rounded=0;whiteSpace=wrap;html=1;fontFamily=Songti TC;" parent="1" vertex="1">
          <mxGeometry x="334" y="1141.5" width="65" height="30" as="geometry" />
        </mxCell>
        <mxCell id="jazvACACAgdtb0qdtr9G-46" value="路由器" style="rounded=0;whiteSpace=wrap;html=1;fontFamily=Songti TC;strokeColor=none;" parent="1" vertex="1">
          <mxGeometry x="308" y="1041.29" width="41" height="30" as="geometry" />
        </mxCell>
        <mxCell id="jazvACACAgdtb0qdtr9G-48" value="" style="rounded=1;whiteSpace=wrap;html=1;" parent="1" vertex="1">
          <mxGeometry x="343.28" y="1199.5" width="141.72" height="35" as="geometry" />
        </mxCell>
        <mxCell id="jazvACACAgdtb0qdtr9G-44" value="令牌环" style="rounded=0;whiteSpace=wrap;html=1;fontFamily=Songti TC;strokeColor=none;" parent="1" vertex="1">
          <mxGeometry x="343.28" y="1202" width="80" height="30" as="geometry" />
        </mxCell>
        <mxCell id="jazvACACAgdtb0qdtr9G-54" value="IP协议" style="rounded=0;whiteSpace=wrap;html=1;fontFamily=Songti TC;strokeColor=none;" parent="1" vertex="1">
          <mxGeometry x="370.84000000000003" y="1055" width="41" height="30" as="geometry" />
        </mxCell>
        <mxCell id="jazvACACAgdtb0qdtr9G-58" value="以太网协议" style="rounded=0;whiteSpace=wrap;html=1;fontFamily=Songti TC;strokeColor=none;" parent="1" vertex="1">
          <mxGeometry x="224" y="1109" width="41" height="30" as="geometry" />
        </mxCell>
        <mxCell id="jazvACACAgdtb0qdtr9G-59" value="令牌环协议" style="rounded=0;whiteSpace=wrap;html=1;fontFamily=Songti TC;strokeColor=none;" parent="1" vertex="1">
          <mxGeometry x="393.64" y="1111.5" width="41" height="30" as="geometry" />
        </mxCell>
        <mxCell id="jazvACACAgdtb0qdtr9G-60" value="" style="rounded=0;whiteSpace=wrap;html=1;fillColor=none;dashed=1;" parent="1" vertex="1">
          <mxGeometry x="255" y="1046.29" width="152" height="136.71" as="geometry" />
        </mxCell>
        <mxCell id="jazvACACAgdtb0qdtr9G-64" value="" style="endArrow=classic;html=1;rounded=0;" parent="1" edge="1">
          <mxGeometry width="50" height="50" relative="1" as="geometry">
            <mxPoint x="159.18" y="1310" as="sourcePoint" />
            <mxPoint x="160" y="1480" as="targetPoint" />
          </mxGeometry>
        </mxCell>
        <mxCell id="jazvACACAgdtb0qdtr9G-65" value="" style="endArrow=classic;html=1;rounded=0;" parent="1" edge="1">
          <mxGeometry width="50" height="50" relative="1" as="geometry">
            <mxPoint x="481.41" y="1480" as="sourcePoint" />
            <mxPoint x="480.59000000000003" y="1310" as="targetPoint" />
          </mxGeometry>
        </mxCell>
        <mxCell id="jazvACACAgdtb0qdtr9G-68" value="" style="shape=or;whiteSpace=wrap;html=1;direction=north;" parent="1" vertex="1">
          <mxGeometry x="272.9" y="1368" width="81" height="111" as="geometry" />
        </mxCell>
        <mxCell id="jazvACACAgdtb0qdtr9G-69" value="" style="endArrow=none;html=1;rounded=0;" parent="1" edge="1">
          <mxGeometry width="50" height="50" relative="1" as="geometry">
            <mxPoint x="159" y="1479" as="sourcePoint" />
            <mxPoint x="481" y="1479" as="targetPoint" />
          </mxGeometry>
        </mxCell>
        <mxCell id="jazvACACAgdtb0qdtr9G-70" value="" style="shape=or;whiteSpace=wrap;html=1;direction=north;" parent="1" vertex="1">
          <mxGeometry x="183.42" y="1441" width="81" height="38" as="geometry" />
        </mxCell>
        <mxCell id="jazvACACAgdtb0qdtr9G-71" value="" style="shape=or;whiteSpace=wrap;html=1;direction=north;" parent="1" vertex="1">
          <mxGeometry x="384" y="1419" width="81" height="60" as="geometry" />
        </mxCell>
        <mxCell id="F1aSFLof_kVe2cH6IPCA-2" style="edgeStyle=orthogonalEdgeStyle;rounded=0;orthogonalLoop=1;jettySize=auto;html=1;exitX=1;exitY=0.5;exitDx=0;exitDy=0;dashed=1;fillColor=#f8cecc;strokeColor=#b85450;" edge="1" parent="1">
          <mxGeometry relative="1" as="geometry">
            <mxPoint x="248" y="499" as="sourcePoint" />
            <mxPoint x="369" y="499" as="targetPoint" />
          </mxGeometry>
        </mxCell>
        <mxCell id="F1aSFLof_kVe2cH6IPCA-3" style="edgeStyle=orthogonalEdgeStyle;rounded=0;orthogonalLoop=1;jettySize=auto;html=1;exitX=1;exitY=0.5;exitDx=0;exitDy=0;dashed=1;fillColor=#f8cecc;strokeColor=#b85450;" edge="1" parent="1">
          <mxGeometry relative="1" as="geometry">
            <mxPoint x="248" y="390" as="sourcePoint" />
            <mxPoint x="369" y="390" as="targetPoint" />
          </mxGeometry>
        </mxCell>
        <mxCell id="F1aSFLof_kVe2cH6IPCA-4" style="edgeStyle=orthogonalEdgeStyle;rounded=0;orthogonalLoop=1;jettySize=auto;html=1;exitX=1;exitY=0.5;exitDx=0;exitDy=0;dashed=1;fillColor=#f8cecc;strokeColor=#b85450;" edge="1" parent="1">
          <mxGeometry relative="1" as="geometry">
            <mxPoint x="248" y="614" as="sourcePoint" />
            <mxPoint x="369" y="614" as="targetPoint" />
          </mxGeometry>
        </mxCell>
        <mxCell id="F1aSFLof_kVe2cH6IPCA-5" style="edgeStyle=orthogonalEdgeStyle;rounded=0;orthogonalLoop=1;jettySize=auto;html=1;exitX=1;exitY=0.5;exitDx=0;exitDy=0;dashed=1;fillColor=#f8cecc;strokeColor=#b85450;" edge="1" parent="1">
          <mxGeometry relative="1" as="geometry">
            <mxPoint x="248" y="727" as="sourcePoint" />
            <mxPoint x="369" y="727" as="targetPoint" />
          </mxGeometry>
        </mxCell>
      </root>
    </mxGraphModel>
  </diagram>
</mxfile>
